<?xml version="1.0" encoding="utf-8"?>
<!-- Generator: Adobe Illustrator 21.0.2, SVG Export Plug-In . SVG Version: 6.00 Build 0)  -->
<svg version="1.1" id="Layer_1" xmlns="http://www.w3.org/2000/svg" xmlns:xlink="http://www.w3.org/1999/xlink" x="0px" y="0px"
	 viewBox="0 0 418.1 477.1" style="enable-background:new 0 0 418.1 477.1;" xml:space="preserve">
<style type="text/css">
	.st0{fill:#666666;}
</style>
<g>
	<path class="st0" d="M328.1,33.2c-14,0-28,0-42,0c-3,0-6,0.2-8.9,0.9c-21.3,4.5-40,13.9-53.7,31.4c-12.9,16.4-18.4,35.5-20.2,55.9
		c-0.5,4.9-0.7,9.8-1.1,15.5c-1-1.8-1.6-2.7-2-3.7c-15.9-31.8-31.8-63.6-47.6-95.5c-1.6-3.3-3.4-4.8-7.3-4.6
		c-10.5,0.3-20.9,0.1-31.4,0.1H98.4c0.5,1,0.7,1.4,1,1.8c25.1,33.5,50.2,67,75.4,100.4c0.9,1.1,2.9,2,4.4,2c6.7,0.2,13.3,0.2,20,0.1
		c23.6-0.2,46.5-4.4,68.4-13.1c24-9.6,44-24.1,55.9-48c6.7-13.5,9.3-27.9,9.4-43.3H328.1z M382.7,237.9
		c-3.7-20.8-10.3-40.3-23.7-56.9c-21-26.2-49.5-35-81.8-34.1c-24.6,0.7-48,7-70.9,15.4c-2.7,1-5,1-7.7,0
		c-28.2-10.2-56.9-17.6-87.2-15c-30.9,2.7-55.9,16-72,42.9c-19,31.8-23.7,66.5-16.7,102.6c5.1,26.4,17.1,50,31.5,72.4
		c17.5,27.1,38,51.6,63.9,71.3c14,10.6,29,16.7,47,13.5c15.2-2.7,30.2-5.4,37.4-22.4c4.1,9.4,8.4,13.8,17.5,17.4
		c4,1.6,8.2,2.8,12.4,3.8c18.7,4.4,36.1,1.9,51.6-10.3c3.1-2.5,6.4-4.6,9.4-7.2c33.8-28.6,59.3-63.3,77.5-103.5
		C383.8,299.1,388.3,269.2,382.7,237.9z M142.9,198.9c-16.3,23-26.4,48.8-33.4,75.9c-7.8,30-11,60.6-11.5,91.5c0,1.6,0,3.2,0,4.8
		c-13.9-17.1-24.3-35.9-29.9-57c-12-45.1-1.9-85.3,27-121.4c1.8-2.2,3.7-3.1,6.5-3.1c14.7,0.2,29.4,0.1,44,0.1h4.2
		C147.2,193.1,144.9,195.9,142.9,198.9z"/>
	<path class="st0" d="M382.7,237.9c-3.7-20.8-10.3-40.3-23.7-56.9c-21-26.2-49.5-35-81.8-34.1c-24.6,0.7-48,7-70.9,15.4
		c-2.7,1-5,1-7.7,0c-28.2-10.2-56.9-17.6-87.2-15c-30.9,2.7-55.9,16-72,42.9c-19,31.8-23.7,66.5-16.7,102.6
		c5.1,26.4,17.1,50,31.5,72.4c17.5,27.1,38,51.6,63.9,71.3c14,10.6,29,16.7,47,13.5c15.2-2.7,30.2-5.4,37.4-22.4
		c4.1,9.4,8.4,13.8,17.5,17.4c4,1.6,8.2,2.8,12.4,3.8c18.7,4.4,36.1,1.9,51.6-10.3c3.1-2.5,6.4-4.6,9.4-7.2
		c33.8-28.6,59.3-63.3,77.5-103.5C383.8,299.1,388.3,269.2,382.7,237.9z M142.9,198.9c-16.3,23-26.4,48.8-33.4,75.9
		c-7.8,30-11,60.6-11.5,91.5c0,1.6,0,3.2,0,4.8c-13.9-17.1-24.3-35.9-29.9-57c-12-45.1-1.9-85.3,27-121.4c1.8-2.2,3.7-3.1,6.5-3.1
		c14.7,0.2,29.4,0.1,44,0.1h4.2C147.2,193.1,144.9,195.9,142.9,198.9z"/>
	<path class="st0" d="M98.4,33.2c5.5,0,10.4,0,15.4,0c10.5,0,20.9,0.2,31.4-0.1c3.9-0.1,5.7,1.4,7.3,4.6
		c15.8,31.9,31.7,63.7,47.6,95.5c0.5,1,1,1.9,2,3.7c0.4-5.8,0.7-10.7,1.1-15.5c1.9-20.4,7.3-39.5,20.2-55.9
		c13.8-17.5,32.4-26.8,53.7-31.4c2.9-0.6,5.9-0.8,8.9-0.9c14-0.1,28,0,42,0c1.5,0,2.9,0,4.7,0c-0.1,15.4-2.7,29.8-9.4,43.3
		c-11.8,23.9-31.8,38.4-55.9,47.9c-21.9,8.7-44.8,12.9-68.4,13.1c-6.7,0.1-13.3,0.1-20-0.1c-1.5,0-3.5-0.9-4.4-2
		C149.6,102,124.5,68.5,99.4,35C99.1,34.6,98.9,34.2,98.4,33.2z"/>
</g>
</svg>
