<?xml version="1.0" encoding="utf-8"?>
<!-- Generator: Adobe Illustrator 21.0.2, SVG Export Plug-In . SVG Version: 6.00 Build 0)  -->
<svg version="1.1" id="Layer_1" xmlns="http://www.w3.org/2000/svg" xmlns:xlink="http://www.w3.org/1999/xlink" x="0px" y="0px"
	 viewBox="0 0 542.5 497.3" style="enable-background:new 0 0 542.5 497.3;" xml:space="preserve">
<style type="text/css">
	.st0{fill:#CC0066;}
</style>
<g>
	<path class="st0" d="M384.6,475.8c-3.1-11.3-6.4-22.3-9.1-33.4c-4.1-16.6-8.3-33.3-7.7-50.7c0.2-5.5,2.1-9.7,6.6-13.3
		c29.1-23.1,58.1-46.4,86.8-69.9c9.1-7.4,18.7-14.9,23.5-26.1c10.5-24.5,20.7-49,30.6-73.7c2-4.9,3.1-10.7,2.6-15.9
		c-1.9-20.7-4.7-41.4-7.1-62c-1.3-10.9-2.4-21.8-4-32.7c-1.1-7.8-5.6-10.7-12.5-9c-4.8,1.2-7.1,4.8-7.2,9.1
		c-0.4,12.3-1.1,24.6-0.3,36.9c1.1,17.6,3.2,35.2-2.7,52.4c-1.4,4-3.2,8.1-5.9,11.4c-17.1,21.1-34.5,41.9-51.9,62.8
		c-1.9,2.3-4.2,4.3-6.6,6c-2.9,2-5.9,1.9-8.7-0.7c-2.8-2.6-3-5.6-1.1-8.5c2.7-4,5.7-7.8,8.6-11.6c13.3-16.9,26.7-33.7,39.8-50.7
		c2.2-2.9,3.5-6.8,4.3-10.4c1.1-5.4-1.7-9.7-7.2-9.9c-4-0.1-8.7,1.2-11.9,3.6c-5.9,4.5-11.2,10-16.2,15.5
		c-10.9,12-21.4,24.2-32.1,36.3c-5.7,6.5-12.6,11.3-20.5,14.7c-12.8,5.5-25.6,11.3-38.3,17c-8.6,3.8-15.4,9.8-21.2,17.1
		c-11,14-19.1,29.6-25.5,46.1c-4.9,12.4-9.5,25-9.5,38.5c-0.2,35,0,70,0,105c0,1.9,0,3.9,0,6.1C315.3,475.8,349.8,475.8,384.6,475.8
		z M255.8,475.9c0.1-2,0.2-3.4,0.2-4.9c0.1-35.5,0.1-71,0.1-106.5c0-3-0.1-6-0.7-8.9c-5.6-27-16.6-51.5-32.9-73.7
		c-6.3-8.6-14.3-15.3-24.1-19.7c-7.6-3.3-15-7.3-22.9-10c-18.7-6.5-33.8-17.7-45.7-33.3c-0.4-0.5-0.9-1-1.3-1.5
		c-10.6-11.7-21.1-23.5-32.1-35c-2.8-2.9-6.7-5.2-10.5-6.4c-7.2-2.4-13,2.3-12,9.7c0.5,3.6,1.8,7.6,4,10.5
		c13.4,17.4,27.1,34.6,40.7,51.9c2.8,3.5,5.5,7.1,7.9,10.9c1.8,2.8,1.4,5.7-1.2,8.1c-2.5,2.4-5.4,3-8.2,1c-2.9-2.1-5.7-4.6-8-7.3
		c-17.2-20.6-34.3-41.3-51.3-62c-1.4-1.7-2.9-3.4-3.6-5.4c-4.3-11.7-6.9-23.7-6.3-36.1c0.6-11.6,2.1-23.3,2.3-34.9
		c0.2-8.6-0.7-17.3-1.6-25.8c-0.4-4.1-3.4-6.7-7.7-7.4c-7.2-1.1-11,2.3-12,11c-3.3,28.1-6.5,56.2-10,84.3c-1.1,8.7-1.6,17,2.1,25.4
		c10,23.2,19.4,46.7,29.4,69.9c2.1,4.9,5.2,9.7,8.8,13.7c5.2,5.8,11,11.2,17.1,16.1c28,22.8,56.2,45.5,84.5,68
		c5.4,4.3,7.8,9.3,7.8,15.8c0,2.8-0.1,5.7-0.3,8.5c-2.2,23.2-8.4,45.4-15,67.6c-0.6,2-1.1,4-1.8,6.4
		C186.6,475.9,220.9,475.9,255.8,475.9z M318.1,57.4c-5.3,1.2-10.8,1.9-15.9,3.7c-12.1,4.3-18.4,14-17.2,26.7
		c0.5,5.3,2.3,10.7,4.4,15.7c5.1,12.4,8.5,24.8,5.7,38.4c-0.9,4.2-0.9,8.6-0.9,12.9c0.1,7.6,3.7,13.2,10.5,16.9
		c13.7,7.3,28.7,2.2,35.9-13.5c6-13.1,10.9-26.8,15.8-40.4c2.8-7.8,2.9-15.8,1.4-24.1C353.3,69.6,340.8,58.2,318.1,57.4z
		 M177.3,124.4c0.1,9.3,0.9,18.4,6.2,26.3c8.6,12.7,17,25.5,26.4,37.5c3.5,4.4,9.2,7.7,14.6,9.8c8.9,3.5,16.9,0.3,23.7-6.1
		c6.2-5.8,7.1-12.9,4.9-20.6c-1.3-4.5-3.3-8.7-4.4-13.2c-1.6-6.7-3.5-13.5-3.7-20.4c-0.2-7.4,1.4-14.9,2.2-22.3
		c1.5-14.9-6.2-26.8-19.5-30.2C201,78.5,177.2,97,177.3,124.4z M243.1,58.5c0-10.5-6.4-18.6-14.7-18.5c-8.1,0.1-14.4,8.1-14.4,18.3
		c0,10.1,6.5,18.3,14.5,18.4C236.5,76.8,243.1,68.6,243.1,58.5z M306,39c0.1-6.1-1.9-11.4-6.1-15.8c-3.7-3.8-8.3-5.6-13.6-4.1
		c-5.1,1.4-7.8,5.3-9.2,10.2c-1.6,5.7-0.7,11.2,2,16.4c3.6,6.7,10.4,10.4,16.2,9C301.6,53.2,305.8,47,306,39z M207.8,69
		c0.1-7.1-5.4-13.7-11.2-13.7c-4.7,0-8.3,4.3-8.5,9.9c-0.2,7.2,4.9,13.6,11,13.7C204.1,79.1,207.7,75,207.8,69z M332.8,37.7
		c0-6.4-4.2-11.5-9.3-11.6c-5.5,0-10.1,5.8-10,12.7c0.1,6.5,4.2,11.4,9.5,11.3C328.4,49.9,332.8,44.4,332.8,37.7z M336.8,46.4
		c0,4.7,3,8.4,6.8,8.3c4.1,0,8-4.8,8.1-9.9c0.1-4.5-3-8.5-6.6-8.6C340.7,36.2,336.8,40.9,336.8,46.4z M178,70.6
		c-3.8,0-6.4,2.9-6.5,7.2c-0.1,5.3,4.1,10.2,8.7,10.4c4.1,0.2,6.7-2.8,6.7-7.5C186.8,75.5,182.6,70.7,178,70.6z M365.7,58.1
		c0-4-2.9-7.2-6.2-7c-3.6,0.2-6.6,4.1-6.6,8.6c0.1,3.7,1.5,6.6,5.5,7C362.2,67.2,365.8,62.6,365.7,58.1z M174.3,97.5
		c-0.1-4.9-4-9.4-7.8-9.1c-3.8,0.4-5.4,3-5.3,6.6c0,4.5,4,9,7.9,8.7C172.9,103.4,174.1,100.7,174.3,97.5z M374.7,70.7
		c-1.2-0.8-3-3.1-5.2-3.5c-3.6-0.6-7.1,3.9-6.9,8.1c0.2,3.2,1.6,5.4,5.1,5.4C371.2,80.8,374.8,76.4,374.7,70.7z M165.5,119.3
		c0.7-1.1,2.7-3,3.1-5.1c0.6-3.8-4-8.2-7.9-7.9c-3.4,0.2-5,2.2-4.8,5.6C156.2,115.9,160,119.5,165.5,119.3z"/>
	<path class="st0" d="M384.6,475.8c-34.7,0-69.3,0-104.4,0c0-2.2,0-4.2,0-6.1c0-35-0.2-70,0-105c0.1-13.5,4.7-26.1,9.5-38.5
		c6.5-16.5,14.5-32.1,25.5-46.1c5.8-7.3,12.6-13.3,21.2-17.1c12.8-5.7,25.5-11.4,38.3-17c7.9-3.4,14.8-8.3,20.5-14.7
		c10.7-12.1,21.2-24.4,32.1-36.3c5-5.5,10.3-11,16.2-15.5c3.1-2.4,7.9-3.7,11.9-3.6c5.5,0.2,8.3,4.4,7.2,9.9
		c-0.7,3.6-2,7.5-4.3,10.4c-13.1,17-26.5,33.8-39.8,50.7c-3,3.8-6,7.6-8.6,11.6c-2,2.9-1.8,5.9,1.1,8.5c2.8,2.6,5.8,2.7,8.7,0.7
		c2.4-1.7,4.7-3.8,6.6-6c17.4-20.9,34.8-41.7,51.9-62.8c2.6-3.2,4.5-7.4,5.9-11.4c5.9-17.2,3.8-34.8,2.7-52.4
		c-0.8-12.2-0.1-24.6,0.3-36.9c0.2-4.3,2.5-8,7.2-9.1c7-1.7,11.4,1.2,12.5,9c1.6,10.9,2.7,21.8,4,32.7c2.4,20.7,5.2,41.3,7.1,62
		c0.5,5.2-0.6,11-2.6,15.9c-9.9,24.7-20.1,49.3-30.6,73.7c-4.8,11.2-14.4,18.7-23.5,26.1c-28.8,23.5-57.8,46.7-86.8,69.9
		c-4.5,3.6-6.4,7.8-6.6,13.3c-0.6,17.4,3.5,34,7.7,50.7C378.2,453.6,381.5,464.5,384.6,475.8z"/>
	<path class="st0" d="M255.8,475.9c-34.9,0-69.2,0-104.1,0c0.7-2.4,1.2-4.4,1.8-6.4c6.6-22.2,12.9-44.4,15-67.6
		c0.3-2.8,0.4-5.7,0.3-8.5c-0.1-6.5-2.4-11.5-7.8-15.8c-28.3-22.4-56.5-45.2-84.5-68c-6.1-4.9-11.9-10.3-17.1-16.1
		c-3.6-4-6.7-8.8-8.8-13.7c-10-23.2-19.4-46.7-29.4-69.9c-3.6-8.4-3.1-16.8-2.1-25.4c3.4-28.1,6.7-56.2,10-84.3
		c1-8.7,4.8-12.1,12-11c4.3,0.7,7.3,3.3,7.7,7.4c0.9,8.6,1.8,17.2,1.6,25.8c-0.3,11.6-1.8,23.3-2.3,34.9c-0.6,12.5,2,24.5,6.3,36.1
		c0.7,2,2.2,3.7,3.6,5.4c17.1,20.7,34.1,41.4,51.3,62c2.3,2.8,5.1,5.2,8,7.3c2.7,2,5.6,1.4,8.2-1c2.6-2.4,3-5.3,1.2-8.1
		c-2.4-3.8-5.1-7.4-7.9-10.9c-13.6-17.3-27.3-34.4-40.7-51.9c-2.2-2.9-3.6-6.8-4-10.5c-1-7.5,4.8-12.2,12-9.7
		c3.8,1.3,7.7,3.5,10.5,6.4c10.9,11.4,21.4,23.3,32.1,35c0.4,0.5,0.9,1,1.3,1.5c11.9,15.6,27,26.8,45.7,33.3
		c7.8,2.7,15.2,6.6,22.9,10c9.9,4.3,17.8,11,24.1,19.7c16.2,22.2,27.3,46.8,32.9,73.7c0.6,2.9,0.7,6,0.7,8.9c0,35.5,0,71-0.1,106.5
		C256,472.5,255.9,473.9,255.8,475.9z"/>
	<path class="st0" d="M318.1,57.4c22.7,0.7,35.2,12.1,39.7,36.3c1.5,8.3,1.4,16.3-1.4,24.1c-5,13.6-9.8,27.2-15.8,40.4
		c-7.2,15.7-22.2,20.8-35.9,13.5c-6.8-3.6-10.4-9.2-10.5-16.9c-0.1-4.3,0-8.7,0.9-12.9c2.9-13.6-0.6-26-5.7-38.4
		c-2.1-5-3.9-10.4-4.4-15.7c-1.2-12.7,5.1-22.4,17.2-26.7C307.3,59.3,312.8,58.6,318.1,57.4z"/>
	<path class="st0" d="M177.3,124.4C177.2,97,201,78.5,227.7,85.3c13.3,3.4,21,15.2,19.5,30.2c-0.7,7.4-2.4,14.9-2.2,22.3
		c0.2,6.8,2.1,13.6,3.7,20.4c1.1,4.5,3.1,8.8,4.4,13.2c2.2,7.7,1.3,14.8-4.9,20.6c-6.8,6.4-14.8,9.6-23.7,6.1
		c-5.4-2.1-11.2-5.4-14.6-9.8c-9.4-12-17.8-24.8-26.4-37.5C178.2,142.8,177.4,133.6,177.3,124.4z"/>
	<path class="st0" d="M243.1,58.5c0,10.1-6.6,18.3-14.6,18.2c-8,0-14.5-8.3-14.5-18.4c0-10.2,6.3-18.2,14.4-18.3
		C236.7,39.9,243.1,48,243.1,58.5z"/>
	<path class="st0" d="M306,39c-0.1,8-4.4,14.2-10.6,15.7c-5.9,1.4-12.7-2.3-16.2-9c-2.8-5.2-3.7-10.6-2-16.4
		c1.4-4.9,4.1-8.8,9.2-10.2c5.3-1.5,9.8,0.3,13.6,4.1C304.1,27.6,306.1,32.9,306,39z"/>
	<path class="st0" d="M207.8,69c-0.1,6-3.7,10.1-8.8,10c-6-0.1-11.2-6.6-11-13.7c0.2-5.6,3.9-9.9,8.5-9.9
		C202.4,55.3,207.9,61.9,207.8,69z"/>
	<path class="st0" d="M332.8,37.7c0,6.7-4.4,12.2-9.8,12.4c-5.3,0.1-9.4-4.7-9.5-11.3c-0.1-6.9,4.5-12.7,10-12.7
		C328.6,26.1,332.7,31.3,332.8,37.7z"/>
	<path class="st0" d="M336.8,46.4c0-5.5,3.8-10.3,8.2-10.1c3.7,0.1,6.7,4.1,6.6,8.6c-0.1,5.1-4,9.8-8.1,9.9
		C339.8,54.8,336.9,51.2,336.8,46.4z"/>
	<path class="st0" d="M178,70.6c4.6,0,8.8,4.8,8.9,10.2c0.1,4.6-2.6,7.6-6.7,7.5c-4.6-0.2-8.8-5.1-8.7-10.4
		C171.5,73.5,174.1,70.6,178,70.6z"/>
	<path class="st0" d="M365.7,58.1c0,4.5-3.6,9-7.2,8.7c-4-0.4-5.5-3.3-5.5-7c-0.1-4.5,2.9-8.5,6.6-8.6
		C362.9,50.9,365.7,54.1,365.7,58.1z"/>
	<path class="st0" d="M174.3,97.5c-0.1,3.2-1.4,5.9-5.3,6.3c-3.8,0.3-7.8-4.3-7.9-8.7c0-3.6,1.6-6.2,5.3-6.6
		C170.3,88,174.2,92.6,174.3,97.5z"/>
	<path class="st0" d="M374.7,70.7c0.2,5.7-3.4,10-7,10c-3.5,0-4.9-2.2-5.1-5.4c-0.2-4.2,3.3-8.7,6.9-8.1
		C371.7,67.7,373.5,69.9,374.7,70.7z"/>
	<path class="st0" d="M165.5,119.3c-5.6,0.2-9.3-3.4-9.6-7.4c-0.2-3.4,1.4-5.4,4.8-5.6c3.8-0.3,8.4,4.1,7.9,7.9
		C168.2,116.3,166.2,118.1,165.5,119.3z"/>
</g>
</svg>
