<?xml version="1.0" encoding="utf-8"?>
<!-- Generator: Adobe Illustrator 20.1.0, SVG Export Plug-In . SVG Version: 6.00 Build 0)  -->
<svg version="1.1" id="Layer_1" xmlns="http://www.w3.org/2000/svg" xmlns:xlink="http://www.w3.org/1999/xlink" x="0px" y="0px"
	 viewBox="0 0 432 324" style="enable-background:new 0 0 432 324;" xml:space="preserve">
<style type="text/css">
	.st0{fill:#231F20;}
	.st1{fill:#DF1174;}
	.st2{fill:#F17622;}
</style>
<g>
	<g>
		<g>
			<g>
				<path class="st0" d="M151.6,189.7c0,0-2.8-2.5-4.6,0.8C146.7,191.1,150.6,193.2,151.6,189.7z M220.1,189.7c0.1,0,0.1,0,0.1,0
					C220.3,189.7,220.2,189.7,220.1,189.7z M166,183.4c0-0.7-4,0.6-3.9,1.2c0.5,5.1-2.4,5.4-2.4,5.4l-0.2,0.3
					c0.1-0.3,0.2-0.5,0.2-0.8c0-0.1,0-0.3,0-0.5c0.1-2.2-1.5-4-3.6-4.1c-2.1-0.1-3.8,1.6-3.9,3.8c-0.1,2.2,1.5,4,3.6,4.1
					c0.8,0,1.6-0.2,2.2-0.7l-0.1,0.2C167.5,192.7,165.9,184.4,166,183.4z M153.2,192.9c0,0-3.5-0.5-3.1,3
					C150.1,196.5,154.2,196.1,153.2,192.9z M151.9,186.5c0,0-1-3.7-4.4-1.8C147.1,185,149.2,188.9,151.9,186.5z M152.8,180.6
					c0,0-1.7,2.8,1.4,3.8C154.7,184.5,155.9,180.9,152.8,180.6z M296.6,170.9c-0.2-3.4-2.2-4.3-2.2-4.9c0.5-11.2,0.4-15-3.3-24.7
					c-1.7-4.3-3.8-7.9-6.1-10.9c-1-1.7-8.1-12.3-31.8-32.1c-3.9-3.2-10.6-8.5-15.9-11.8c-0.6-0.4-4.3-2.9-8.9-5.5
					c19.5-2.8,22.4-21,21.6-21.2c-0.7-0.2-6.7-7.7-6.7-7.7c-3.9-1.6-4.4,2.6-4.9,2.6c-6.5,0-3,5.5-3.2,5.5c-3.8-0.7-5,1.6-5.5,2.8
					c-1.4,3.4,1.7,5.9,1.5,6.1c-3.6,3.6,0.4,5.5,0.9,5.9c-5.4,1.2-7.2-2.2-7.4-2.1c-1.2,0.8,0.3,1.8,0,1.9c-0.3,0.1-7.2-1.9-7.3-6.1
					c-0.1-6.1,3.9-5.6,5.2-5.3c1.9,0.4,3.3,3.8,2.3,4.7c-2.5,2.3-3.7,0.9-4.1,0.2c0.3,0.4,0.8,0.2,1.1,0.1c0.6-0.1,0.4-1.4-0.5-1.6
					c-1.1-0.2-2,1-1.1,2.4c0.1,0.2,2.2,2.7,5.2-0.4c2.6-2.7-1.1-6.1-2.3-6.3c-1.1-0.2-7.9-1.5-7.4,6.7c0.4,6.5,7.9,7.6,12.5,7.6
					c-2.2,0.6-4.9,1-6.2,1.1c-0.6-0.3-1.2-0.5-1.8-0.8c0,0-15.6-6-23.5,1.1c-7.9,7.1-3.9,19.4,7,14.9c0.4-0.2-10.7-1.3-7-9.3
					c0,0,6.1-11.4,17.2-0.1c0.3,0.3-6.9,2.1-6.1,8.7c0.5,4.3,4.3,7.7,8,5.2c3.2-2.1,0.5-5,0.5-5c-4.2-2.6-5.1,1.4-5.7,1
					c-1.7-1.1,0-7.9,9.9-6.7c5.3,0.6,10,3.2,13.4,5.7c-4.2-1.7-8.9-2.2-12.4,1.4c-6.7,6.9,0.1,12.3,1.7,13.1c2.3,1,8.2,0.6,8-4.1
					c-0.2-5.3-4.9-5.1-5.2-5.1c-2,0.6-2.2,2.4-1,3.1c1,0.6,2.2-0.5,1.8-1.1c-0.2-0.3-0.5-0.9-1.1-0.8c1-0.4,3.2-0.7,3.6,3.5
					c0.2,1.6-3.3,3.5-5.5,2.3c-1.4-0.8-5.3-4-0.9-9c3.6-4.1,11.7-0.2,11.8,0.1c0.2,0.3-4.7,0.5-1.4,4.9c0.2,0.2,0.4-7.1,8.7,1.5
					c0,0,0.1-0.2,0.2-0.4c-0.9,15.3,15.1,11.5,15.1,11.5c-10.6-0.4-6-7.8-4.5-7.7c-3.5,4.5,2.8,6.3,2.5,5.8c-3-3.8,0.7-2.1,3.5-0.5
					c0.1,0.2,0.3,0.3,0.4,0.5c2.8,2.9,3.6,4.6,4.2,5.5c-6.8-1.1-14-0.4-16.7,0.4c-0.5,0.1-0.9,0.3-1.4,0.4
					c-2.3-1.8-6.2-3.6-10.6-1.6c-1.4,0.6-7.3-8.8-15.6-4.4c-5.2,2.8-3.7,8.8-2.8,10.1c2,2.9,7.4,5.1,8.1-0.4
					c0.6-4.2-6.3-3.7-6.7-1.5c-0.4,2.1-1.5-4.6,3-6.2c4.5-1.6,8.2,3.3,7.2,7c-0.9,3.2-4,7.4,0.1,10.6c-5.2,8.5-3.3,15.8-2.9,17.3
					c0.7,2.6,3.6,8.3,8.5,9.3c7,1.4,8.7-4,9.7-5.1c0.9-1.1,2.1-7.1-2.4-6.9c-4.5,0.2-3.6,4.6-3.6,4.6c1.1,4.3,5.2,2.2,5,2.7
					c-0.1,0.5-2.6,4.8-8.6,3c-0.3-0.1-6.4-2.6-6.9-9.7c-0.7-9.9,2.8-14.5,13.7-21.6c10.9-7.1,18.2-3.1,18.2-3.1
					c-5.9,3.8-5.8,11-5.8,11c0,8.3,10.3,11.4,9.5,10.9c-0.8-0.5-1.5-4.4-0.5-3.7c0.4,0.3,1.6,0.9,1.4,0.6c-0.2-0.3-0.4-0.7-1-2.2
					c-4.7-11.9,8.4-11.2,8.4-11.2c3.2,0.4,7.1,4.8,6.2,4.9c-4.8,0.8-7.3,5.3-6.1,8.6c1.2,3.3,5.9,3,5.4,2.7
					c-0.5-0.3-4.6-1.5-3.1-5.6c1.5-4.2,7.1-2.7,8.5,0.2c3.2,6.6,0.7,9.6,0,9.3c-11-5.5-12.5,6.3-12.7,7.1c-0.2,0.8,1-0.7,1.4-1.4
					c2.7-5.1,6.6-3.4,7.9-2.8c3,1.5,3.8,5.1,2.3,7.6c-1.8,2.8-8.6-0.4-9.9-0.7c-0.6-0.1-0.3,0.3-0.3,0.3
					c22.6,14.1,11.1,33.9,9.1,36.7c-1.4,1.9-3.4,4-6.1,5.8c-0.2-2.6-1.4-6.3-4.8-11.6c-0.5-0.7,4.8,3.1,4.7,4.3
					c-0.1,1.2,16.4-12.4-2.3-22.1c-0.6-0.3,4.4,6,3,5.7c-1.3-0.3-1.8,0.2-1.6,0.8c0,0.1,1.3-0.5,1.6,1.8c0,0.4-1.4-0.3-1.3,0.2
					c0.1,1.6,1.8,4.9,0.9,7.6c-0.2,0.6-5.8-6.7-9-7.8c0,0-0.6,6.5-2.8,8.2c-2.1,1.7,0.7-1.4,0-2.3c-0.7-0.9-2.1,2.6-3.5,2.8
					c-1.4,0.2,0.3-6.5,2.3-8.3c2.1-1.9-7.4,3.3-9,2.5c-0.4-0.2-0.2-3.1,0.1-3.9c0.4-0.8-0.6,0.3-1.6-1.3c-0.3-0.4,2.4-2.9,2-3
					c-6.3-0.9-9.7,3.9-11.2,8.1c-1.5,4.2-1.9,6.3-7.1,7.7c0,0,2.6,5.7,15.6,0.1c0.4-0.2,0.2,0,0.2,0s-1.7,5.2,6.6,6
					c4.8,0.5,3.8,6.1,3.7,6.6c-0.1,0.5,8-3.2,7.8-11.3c0,0,0.1-0.3,0.8,1.6c1.9,4.9,1.9,7.9,1,9.7c-4.2,2-9.5,3.2-15.7,2.6
					c-5.5-0.6-11-2.3-16-4.5c-9.3-6.2-5.3-13.2-5.6-13.3c-5.6-2.3-4.5,2.9-4.8,2.8c-0.4-0.1-6.6-7.7-3.3-12.5c4.1-6,8.5-2.8,9.8-1.5
					c1.8,1.9,0.8,6.1-1,6.4c-4.5,0.7-4.8-1.7-4.7-2.9c0.1,0.7,0.8,0.8,1.1,0.9c0.8,0.3,1.6-1.3,0.7-2.2c-1.1-1.1-3-0.4-3,1.9
					c0,0.3,1,5.4,6.7,4.1c5-1.1,3.9-7.5,2.1-9.6c-1.2-1.5-8.8-7.3-14.3,1.7c-3.9,6.4,0.2,13.2,4.2,17.7c-2.3-1.5-4.4-2.9-5.9-4.1
					c0.1,0,0.2,0,0.2,0c-0.1,0-0.3-0.1-0.5-0.2c-2.2-1.7-3.5-2.8-3.5-2.8c-8.2-5.2-6.7-9.6-5.3-10.8c1.9-1.7,6.5-0.4,6.5-0.4
					s1.2,0.4,0.8-0.1c-2.9-3.1-4.3-2.7-6.2-2.6c-1.9,0.1-5.2,0.9-6.2,6.4c-0.5,2.7,2.3,5.8,5.3,8.3c-7.4-0.1-9.9-1.7-11.7-3.3
					c-1.8-1.7-0.4-4.7,2.3-5.3c2.2-0.5,4.1-0.1,3.8-0.3c-3.1-2.7-6.3-1.3-6.3-1.3s-5,2-3.4,6.9c1.7,5.1,10.3,4.9,10.5,4.9
					c0.2,0,0,0.2,0,0.2s-4.4-0.8-9.7,5.1c-0.2,0.2-0.4,0.4-0.6,0.6c-13.9-0.1-11.2-12.3-11.5-12.2c-1.4,0.4-2.3,0.1-2.3,0.1
					c0.9,10.8,8.1,12.9,12.9,13c-4.8,4.6-9.7,5.9-9.7,5.9c-3.4,0.9-7.4-0.9-7.6-1c-0.2-0.1-0.2,0.1-0.2,0.1
					c-0.6,1.9,1.1,2.7,0.8,2.8c-5.3,2.4-7.2-4.7-7.8-5c-0.6-0.3-1,1.7-1,1.7s-3.3-0.8-0.6-5.8c2.7-5,8.4-3.6,8.4-3.6
					c4.7,1.5,1.7,6.1,1.7,6.1c0.1-0.4,0.4-2-0.2-3c-0.5-0.8-1.8-0.9-2.6-0.8c-2.3,0.3-1.8,3.1-1.7,3.5c0.2,1,3.1,2.6,5.3,0.3
					c3.2-3.5,0-7-2.5-7.7c-2.5-0.7-10.7-0.4-11.4,7.9c-0.7,8.3,8.1,10.2,8.1,10.2l0,0.3c-12,4.5-18.6-5-18.9-5.4
					c-0.3-0.4-0.4,0-0.4,0s-5.1,8.3-9.7,2.3c-4.6-5.9-0.4-8.1-0.7-8.6c-0.9-1.5-4.2,0.4-4.2,0.4c-2.1-1.9,0.7-7.6,1.7-8.3
					c1.3-0.9-3-1.5-3-1.5s3-9.1,12-10.1c9-0.9,10.3,7.6,10.3,7.6c0.8-1.3,5.6-1.8,5.6-1.8s-0.8-3.2-1.6-4
					c-8.4-9.2-19.1-4.6-19.6-4.4c-0.5,0.2-6.8,2.1-9.5,11.2c-2.6,9.1,2.5,14.1,2.7,15c0.1,0.5-1.4,0.5-1.2,1
					c0.4,1.4,6.4,8.3,13.5,10.3c11.3,3.2,25.6,1,27.7,0.4c2.2-0.6,11.9-4.4,22.3-13.8c5.4-4.8,10.4-6.9,13.9-7.8
					c1,0.7,1.8,1.2,2.2,1.4c-3.3,1.7-4.7,5.3-6.2,10.1c-1.8,5.6-4.7,6.1-6.5,6.3c-2.7,0.3-4.6-1.6-4.3-2.8c1-3.2,4.6,0,4.6,0
					c-0.2-5.1-8.2-4.4-8.7,0.7c-0.2,1.6-0.2,5.5,6.2,6.8c7.6,1.7,11-4.5,11-4.5c0.9,5.3,12,9.6,16.6,3.8c1.7-2.1,1.4-4.5,0.2-6.2
					c3.1,2.5,6.9,4.7,13.3,6.3c8,2.1,21.2,2,31-4.7c15.8-10.9,19.4-31.3,19.4-31.3C295.5,176.1,296.8,174.4,296.6,170.9z
					 M236.1,61.4c-0.2-5,4-4.9,4.5-4.8c3.6,0.3,5.2,2.3,5.9,4.5c0.2,0.8-0.1,1.3-0.2,1.2c-2.9-2.2-4.7-2.5-6.1-2.3
					c-2.1,0.3-6.3,4.4-2.6,7.5c2.3,1.9,4.5-0.3,4.2-0.4c-0.2-0.1-2.3-0.2-2.8-1.1c-0.9-1.6,1.2-2.5,2.1-2.5c2.6,0.2,3.1,2.2,2.6,4.3
					c-0.1,0.5-2.1,2.8-2.3,2.6c-0.6-0.7-1.9-0.9-2.3-1c-0.2-0.1-1.7-0.2-2.7,1.6c-1.2,2.1,1.7,2.6,1.4,2.4c-0.4-0.2-0.7-0.4,0-1.5
					c0.7-1.1,2.3-0.5,1.7,1c-0.6,1.4-5.5,2.1-5.6,2c-2.8-2,0.2-5.5,0.1-5.7C230.9,62.5,236.1,61.7,236.1,61.4z M225.9,205.8
					c1.6,0.4,2.2,2.3,0.4,3.6c-1.7,1.3-6.2,0.5-7.2-1.5c-2.6-5,0.8-7.6,3.9-8.9c1.9,1.8,3.4,3.6,5.1,5.2c-0.4-0.2-0.9-0.4-1.3-0.5
					c-3.1-0.7-4.4,3.4-4.4,3.4C222.8,206.6,224.1,205.3,225.9,205.8z M213,218.6c0,0-1.1,3.3,2.4,3.6
					C215.9,222.2,216.3,218.1,213,218.6z M204,220.3c0,0.5,4.1,0.2,3.2-2.9C207.2,217.4,203.7,216.8,204,220.3z M205.9,214.9
					c0,0-2.5-2.4-4.3,0.6C201.4,216,205,218,205.9,214.9z M215.6,216.4c0,0,0,3.5,3.4,2.6C219.5,218.9,218.5,214.9,215.6,216.4z
					 M210,219.1c0,0-3.1,1.6-0.8,4.2C209.5,223.8,212.6,221.1,210,219.1z M213.2,212.8c-3.9-2.3-5.2,1.9-5.2,1.9
					c-0.2,3.6,4.4,3.4,5.5,2.6C214.4,216.7,215.8,214.3,213.2,212.8z M265.3,163.4c0.4,1.6,4.2,2.3,4.5-0.7c0.1-2.6-2.5-6.8-6-6.6
					c-6.5,0.2-6,8.7-6.1,9.4c0,0-4.7,1.5-5.1,6.1c-0.1,0.7,0.1,3.7,8.4,4.4c1.3,0.1,10.6-1.3,8.7-7.1c-1.4-4.2-6-4.1-6.4-4.3
					c-0.3-0.2-1.1-5,1.3-5.6c2.4-0.6,3.7,1.7,3.7,1.7S264.5,160.1,265.3,163.4z M233.8,140.7c0-0.9-0.7-1.6-1.7-1.6
					c-0.9,0-1.7,0.7-1.7,1.6s0.7,1.6,1.7,1.6C233.1,142.3,233.8,141.6,233.8,140.7z M237.2,134c0-0.9-0.8-1.6-1.7-1.6
					c-0.9,0-1.7,0.7-1.7,1.6c0,0.9,0.8,1.6,1.7,1.6C236.4,135.6,237.2,134.9,237.2,134z M250.8,124.9c0-1.2-1-2.1-2.3-2.1
					c-1.3,0-2.3,0.9-2.3,2.1c0,1.2,1,2.1,2.3,2.1C249.8,127,250.8,126,250.8,124.9z M233.4,150.5c0.9,0,1.7-0.7,1.7-1.5
					c0-0.8-0.8-1.5-1.7-1.5c-0.9,0-1.7,0.7-1.7,1.5C231.6,149.8,232.4,150.5,233.4,150.5z M239,128.2c0,1,0.9,1.7,1.9,1.7
					c1.1,0,1.9-0.8,1.9-1.7c0-0.9-0.9-1.7-1.9-1.7C239.9,126.4,239,127.2,239,128.2z M221,51.1c0.1-0.3-1.9-1.4-2.4,0.4
					C218.5,51.5,220,52.8,221,51.1z M215.9,59.1c0.2,0.2,1.7-1.7,0-2.5C216,56.6,214.4,57.9,215.9,59.1z M221.3,54.3
					c0.2-0.2-1.4-2-2.5-0.4C218.9,53.9,219.8,55.7,221.3,54.3z M217.5,55.5c0,0-0.5,1.9,1.5,2C219.3,57.5,219.4,55.1,217.5,55.5z
					 M198.9,159.5c-1.6-5.6-6-1.7-6.3-2c-3-4.7-6.2-1-6.2-1s-3.9-1-3.1-0.2c0,0,6.5,4.5,4.1,11c-0.4,0.3-0.7,0.6-1,0.9
					c1.5-2.7,2.3-6.1-1.5-7.6c-1-0.4-2.5,0.8-2.3,1.6c0,0.1,2.6-1.1,3.9,1.1c0.2,0.3-1.3-0.4-2.5,1.4c-0.2,0.3,4-1.2,2.5,2.6
					c-0.2,0.5-0.4,1-0.7,1.4c-0.5,0.6-0.9,1-1,1.4c0,0.1-0.1,0.3-0.1,0.4c-0.4,0.6-0.9,1.1-1.3,1.8c0,0,0.5-0.6,1.2-1.4
					c-0.1,0.3-0.1,0.6-0.2,0.9c-0.1,0.1-0.2,0.3-0.4,0.4c0,0,0.1-0.1,0.3-0.3c-1.1,6.3,6.1,6.1,6.9,4.6c0,0,0-6.2,7.9-11.2
					c1.6-1-6.8,3.3-8,4.5c0.5-0.9,1.8-3.4,2.2-5.1c0.1-0.3-3,6.2-5.2,6.1c-2.1-0.1,2.5-5.7,5.3-8c0.3-0.3-3.3,2.3-6,4.6
					c1-2.4,1.3-5.4-0.7-8.8c-0.1-0.2,1.8-2,2.9-1.7c0.6,0.2,1.9,0.5,2.7,1.4c0.2,0.2,2.8-0.1,3.8,0.2c0.9,0.3,2.1,1.3,2.3,1.5
					c0.3,0.2,2.8,1,3.8,2c0.6,0.6,1.3,2,1.7,2.6c1.6,2.1,1.3,3.2,1.4,3.7c0,0,0,0.1-0.1,0.1c-1.8-0.9-10.6,4.1-14.1,8.5
					c0,0,1.1-0.9,2.6-2c-0.8,0.7-1.6,1.4-2.4,2.3c1.2-1.1,2.3-2.1,3.4-3c3.5-2.4,8.5-5,8.7-0.4c0,0.2,1.2-2.8-0.1-4
					c-0.3-0.2,1.8-0.1,2,1.7c0,0.3,1-0.6,0.6-2.1c1.2,0.2,1.8,0.7,1.8,0.5c0.7-3.7-3.4-4.9-3.3-5.4
					C205.5,158.4,198.9,159.5,198.9,159.5z M180.3,177.9c2.4,0-0.6,2.2-1.6,2.1c-1-0.2,0.6,2.3,5.4,1.4c0,0,2.2-0.6,2.9,5.1
					c0.1,1.1,2.2-2.2,1.7-4.8c-0.2-0.9,4-0.8,4.1,2.2c0,0.2,2.2-3.2-1.5-6c-1.5-1.2-3.4,1.1-5.9-1.2c-2.5-2.3-1.7-2.2-2.2-4.1
					c-0.5-1.9-6.4-2.5-7.9-1.2c-0.6,0.5,1.1-0.8,5,1.9c3.9,2.8-4.2,2.4-5.1,2C174.4,174.9,177.9,177.9,180.3,177.9z M190.4,49.3
					c0.7,0,0.8-5.3-3.4-4.5C187,44.8,185.8,49.2,190.4,49.3z M184.5,40c0,0,0.3,0,0.3-0.2c0,0-5.5-5.2-3.3-10.7
					c0.4-1,0.8,4.4,5.7,1.9c0.6-0.3-5.3-0.2-1.9-7.2c0.8-1.6-0.9,3.4,4.9,4.1c0.3,0-3.5-3.5-1.1-6.5c0.7-0.9,1.6,5.8,6.5,5.5
					c0.8-0.1-6.7-4.9-0.4-10.6c0.6-0.5-3,3.5,0.7,6.8c0.5,0.4,0.1-6.8,8.2-5.9c0.6,0.1,4.6,1.4,2.4,3.9c0,0-1.1,1.4-2.9-0.4
					c-1-1-0.4,4.2,3.8,5.9c0.4,0.1-2.5,2.6-3.8-1.2c-0.2-0.5-4.4,5.8,6,6.9c0.5,0.1-0.2,7.4-5.1,2.1c-0.7-0.7,0.7,8.9,12.7-0.6
					c0,0,2.4,2.2,5.6,5.2c-1-0.3-1.6-0.3-1.6-0.3c-7.4,0.1-11,4.2-11.7,5.1c-1.1,1.4-3,5.3-1.6,8.5c2.1,4.5,5.8,3.4,6.7,3.5
					c1,0.1,4.7-1.6,2.8-4.1c-1.9-2.5-3.9-0.2-3.9-0.2c-1.9,2.3,0.9,3.8,0.6,3.9c-0.3,0.1-3.6-1-4.1-4.2c0-0.2,0-4.5,4.5-6.1
					c4.7-1.6,8.2-1.4,11-0.2c-3.9,3.8,1.9,6.5,1.7,6c-1-2.1-0.3-3.4,1.3-2.4c1.6,1,4,4.8,4.8,6.1c0.3,0.9,0.4,1.4,0.5,1.3
					c1.1-2.4,3.6-1.8,3.7-2.1c0.4-1.6,1.3-2.3,2-2.5c0.5-0.1,1-0.2,1.3-0.2c0.2,0,0.3,0,0.3,0c0.1,0,0.2,0,0.2-0.1
					c-3.1-2.1-26.3-25-28.7-28.9c-3.1-4.9-4.7-7.7-9.8-9.9c-1.2-0.5-14.8-5.4-22.6,11.5c0,0-1.1,2.3-1.1,6.5
					C179.2,30.8,179.5,36.7,184.5,40z M187.8,42.6c-0.3,0.6,4.5,3,5.5-1.2C193.3,41.4,189.8,38.5,187.8,42.6z M185.1,42.6
					c0.5-0.4-2.5-4.8-5.4-1.7C179.7,40.9,181.3,45.2,185.1,42.6z M185.4,44.2c0,0-4.5-0.5-3.9,4C181.6,48.9,186.9,48.2,185.4,44.2z
					 M188.1,36.1c0,0-4.3,1.6-1.7,5.4C186.8,42,191.2,39,188.1,36.1z"/>
			</g>
		</g>
		<g>
			<path class="st1" d="M255.7,131.6c-1.3,6.7,5.7,10.2,5,9.8c-0.7-0.4-1.1-3.8-0.2-3.2c0.3,0.3,1.7,0.8,1.5,0.6
				c-0.2-0.2-1.1-1.3-1.6-2.6c-3.9-9.7,11.1-11,11.1-11C271.5,124.2,258.3,118.7,255.7,131.6z"/>
			<path class="st1" d="M165.3,209.7c0.4-0.2-4.3,2.2-10.1-5.5c0,0,0,2.9-5,3.5C150.2,207.6,162.1,211.4,165.3,209.7z"/>
			<path class="st1" d="M262.9,196.1c0.1-0.5-1-2.4-5.6-2.8c-7.9-0.7-4.6-7.8-4.6-7.8s-2.2,1.8-3.2,2.1c-4.9,1.5-8.1,0.5-8.1,0.5
				c2.3-2.6-0.4-3.6,0.4-6.3c1.3-4,4-6.7,9.1-7.4c0.3,0-2,2.2-1.8,2.6c0.5,0.7,1.9,0.7,1.5,1.4c-0.4,0.7-0.1,3.7,0.2,3.9
				c1.5,0.7,9.9-3.6,7.9-1.8c-2,1.8-2.7,6.8-1.6,7.5c1.9,1.2,3.3-3.5,3.9-2.6c0.7,0.9-2.5,3.6,0.4,2.5c2.4-0.9,3.2-8.1,3.2-8.1
				c3.1,1.1,7.8,7.9,8.3,7.7c2.6-1.3,0.2-6.1,0.1-7.6c0-0.5,0.9,0.3,1.1-0.1c0.6-2-1-2.8-1-2.8c-0.1-0.5-0.1-0.5,1.2-0.2
				c1.3,0.3-1.3-3.3-0.7-3c10,5.8-0.6,17.2-0.5,16.1c0.1-1.1-6.4-5-6.2-4.3c0.5,2.5,0.4,3.6-0.5,5.8
				C265.6,194.1,262.8,196.6,262.9,196.1z"/>
			<path class="st1" d="M234.4,117.4c0,0,6.3-2,9.1,0.9c0.4,0.4-1.6,0.1-8.1,5.1c-5.5,4.2-6.2,5.6-6.5,5.3c-0.6-0.8-2.3-2.2,1-8.2
				c1.4-2.5-0.6-3.9-0.7-3.9c-0.5-0.1,0.7-1.8,2.4-0.9C233.4,116.6,233.9,117,234.4,117.4z"/>
			<path class="st1" d="M250.1,124.6c0,0.8-0.7,1.4-1.6,1.4c-0.9,0-1.6-0.6-1.6-1.4c0-0.8,0.7-1.4,1.6-1.4
				C249.4,123.2,250.1,123.9,250.1,124.6z"/>
			<path class="st1" d="M216.9,53.2c0,1.1-0.8,2-1.8,2c-1,0-1.8-0.9-1.8-2c0-1.1,0.8-2,1.8-2C216.1,51.3,216.9,52.1,216.9,53.2z"/>
			<path class="st1" d="M224,121.9c0,1.4-1.1,2.5-2.5,2.5c-1.4,0-2.5-1.1-2.5-2.5c0-1.4,1.1-2.5,2.5-2.5
				C222.9,119.4,224,120.5,224,121.9z"/>
			<path class="st1" d="M216.3,95.5c0,1.2-1.2,2.3-2.7,2.3c-1.5,0-2.7-1-2.7-2.3c0-1.2,1.2-2.2,2.7-2.2
				C215,93.2,216.3,94.2,216.3,95.5z"/>
			<path class="st1" d="M157.9,189.1c0,1.5-1.1,2.8-2.5,2.8c-1.4,0-2.5-1.2-2.5-2.8c0-1.5,1.1-2.8,2.5-2.8
				C156.8,186.3,157.9,187.6,157.9,189.1z"/>
			<path class="st1" d="M178.5,195.7c0,1-0.8,1.8-1.7,1.8c-0.9,0-1.7-0.8-1.7-1.8c0-1,0.8-1.8,1.7-1.8
				C177.7,193.9,178.5,194.7,178.5,195.7z"/>
			<path class="st1" d="M244,149.5c0,1.4-1.2,2.6-2.7,2.6c-1.5,0-2.7-1.2-2.7-2.6c0-1.4,1.2-2.6,2.7-2.6
				C242.8,147,244,148.1,244,149.5z"/>
			<ellipse class="st1" cx="240.8" cy="128.2" rx="1.3" ry="1.2"/>
			<ellipse class="st1" cx="235.4" cy="134.1" rx="1.2" ry="1.1"/>
			<ellipse class="st1" cx="231.9" cy="141" rx="1.1" ry="1.2"/>
			<ellipse class="st1" cx="233.1" cy="149.2" rx="1.1" ry="1"/>
			<path class="st1" d="M190.5,175.3c0,0-1.4-1.7,3.5-6.6c1-1-3.6,1.7-4,2.5c-0.4,0.8,1.1-1.2,1.5-3c0-0.2-2.1,2.9-3.7,2.8
				c-1.5-0.1,0.5-3.6,2.2-5.4c0.3-0.3-3.7,3.8-4.2,5.2C183.8,176.6,189.9,176.5,190.5,175.3z"/>
			<g>
				<path class="st1" d="M215.4,30.9c-2.5-4.1-3.4-4.7-5.2-8.3c-1.4-2.8-3.2-1.7-3.1-1.6c0.4,0.2,1.9,1.3,0.9,2.1c0,0-1.3,1-2.8-0.5
					c-0.8-0.8-0.4,2.5,3.1,3.9c0.3,0.1-0.8,2.5-3.7,2c-0.5-0.1,0.6,1.9,5.8,3.2c0.4,0.1,0.5,2.5-0.8,4.6c-0.4,0.7,4,0.4,6.5-3.9"/>
			</g>
			<path class="st1" d="M185.1,44.6c0,0-3-0.3-2.6,2.6C182.6,47.6,186.1,47.2,185.1,44.6z"/>
			<path class="st1" d="M187.6,37.7c0,0-2.8,1-1.1,3.5C186.8,41.5,189.6,39.6,187.6,37.7z"/>
			<path class="st1" d="M187.3,44.9c0,0-0.7,2.8,2.1,2.8C189.8,47.7,189.9,44.4,187.3,44.9z"/>
			<path class="st1" d="M181.4,41.5c0,0,1,2.6,3.3,1C185,42.3,183.1,39.6,181.4,41.5z"/>
			<path class="st1" d="M191.7,41.8c0,0-2.2-1.8-3.5,0.8C188,42.9,191.1,44.4,191.7,41.8z"/>
			<g>
				<path class="st1" d="M199.6,15.5c0.5-0.2-7.3-6.2-15.6,3.7c0,0-2.8,3.5-3.6,7c-0.1,0.5-0.7,2.3,0,4.1c0,0,0.1-2.5,1.3-2.9
					c0.8-0.2,0.6,3.2,3.5,3.6c0.5,0.1-4.6-3.1,0.4-8.7c0.9-1-0.2,2.4,3,4.5c0.2,0.1-2.5-3.2,0.5-6.5c0.6-0.6,1.5,3.9,4.1,4.7
					c0.5,0.2-4.8-6.3,2.5-9.4c0.5-0.2-1.9,3.8,0.1,5.8C196.3,21.9,195.3,17.6,199.6,15.5z"/>
			</g>
			<path class="st1" d="M245.9,62.8c-2.8-2.1-4.3-2.2-5.7-2.2c-1.8,0-5.5,3.2-2.6,6.3c0.7,0.7,2.6,0.4,2.3,0.3
				c-0.2-0.1-1.1-0.6-1.5-1.5c-0.8-1.5,1.1-3.2,2.8-2.9c1.5,0.2,3.4,1.4,2.8,3.4C243.9,66.9,245.9,62.8,245.9,62.8z"/>
			<path class="st1" d="M241.2,70.6c-1-1-2.1-1-2.5-1c-0.8,0-2.4,0.9-2.1,2.3c0.1,0.5,0.7,0.7,0.6,0.7c-0.1-0.1-0.1-0.8,0.1-1.2
				c0.5-0.8,1.1-1.1,1.9-0.9c0.7,0.2,1.2,0.8,0.8,1.8C239.8,72.6,241.2,70.6,241.2,70.6z"/>
			<path class="st1" d="M257.5,166.4c0,0-4.5,1.7-4.2,5.6c0.1,1.2,10,6.7,15.8-0.4c0.3-0.3-7.1,2.7-11.5,0.3
				C256.6,171.3,253.4,169.5,257.5,166.4z"/>
		</g>
		<g>
			<path class="st2" d="M260.4,127.9c-1.9,2-4,6.9-1.8,10.5c0.2,0.4-3-2.6-2.2-7.2c0.9-5.1,4-7.2,8-7.5c3.5-0.3,6.2,1.2,3.6,0.9
				C268,124.7,262.7,125.6,260.4,127.9z"/>
			<path class="st2" d="M263.5,193.4c0.1-0.4-2-0.7-6-2.4c-6-2.4-3.8-6.8-3.8-6.8s-0.7-0.3-3.2,0.7c-3.1,1.3-6.1-0.4-6.1-0.4
				c0.9-2.3-0.2-3.8-0.3-5.2c-0.1-1.4,3-4.6,5.3-3.9c0.3,0.1-1,1.3-0.7,1.7c0.4,0.7,1.7,0.9,1.4,1.6c-0.3,0.7-0.1,3.9,0.8,4.2
				c1.5,0.4,8.3-2.9,6.5-1.3c-1.8,1.7-1.3,6.1-0.2,6.7c2,1.1,3.3-3,3.8-2.5c0.8,0.7-2.9,3.2-0.1,2.5c4-1,4.3-7.6,4.3-7.6
				c2.9,1,7.4,7.1,7.9,6.9c3.4-1.4,0.7-6,0.6-7.4c0-0.5,0.7,0.4,1-0.4c0.7-1.8-0.8-2.6-0.8-2.6c-0.1-0.5,0-0.3,1.2,0
				c1.3,0.3-0.7-2.7-0.3-2.2c4.9,5.9-1.1,14.7-1.7,13.8c-1.7-2.2-6.5-4.2-6.4-3.5c0.5,2.3,0.1,3.2-0.7,5.3
				C265.2,193.2,263.4,193.9,263.5,193.4z"/>
			<path class="st2" d="M235.7,117.8c0,0,3.7-1.3,5.6,0.7c0.3,0.3-1.1,0.3-5.7,3.8c-3.9,3-4.4,4-4.6,3.7c-0.4-0.6-2.3-1,0-5.2
				C232.1,119.1,234.7,118,235.7,117.8z"/>
			<ellipse class="st2" cx="267.4" cy="162.6" rx="1.5" ry="1.5"/>
			<g>
				<path class="st2" d="M215,31.2c-2.1-3.4-2.9-3.9-4.4-6.9c-0.9-1.9-1.7-1.7-1.6-1.6c0.4,0.2,0.2,1-0.5,1.4c0,0-1,0.5-1.8-0.1
					c-0.7-0.6-0.4,0.9,2.6,2c0.3,0.1-0.3,3.4-2.7,2.9c-0.4-0.1,0,0.6,4.3,1.6c0.4,0.1,1.2,2.9,0.1,4.6c-0.4,0.6,2.5,0.9,4.6-2.7"/>
			</g>
			<g>
				<path class="st2" d="M198,15c0.4-0.2-7.2-3.4-13.5,3.8c-3,3.4-3.4,6.2-3.6,8.1c0,0,0.2-1,1.2-1.4c0.4-0.1-0.3,0.8,1.2,1.7
					c0.4,0.2-1.7-2.4,2.3-6c0.8-0.7-0.3-0.1,1.5,1.9c0.1,0.1-0.3-2.9,1.9-4.1c0.6-0.3,0.4,1,2.2,2.5c0.4,0.3-1.4-4.2,4.8-6.2
					c0.8-0.3-0.9,3-0.3,4.1C195.8,19.8,196.2,15.7,198,15z"/>
			</g>
			<path class="st2" d="M245.6,62.8c-2.7-1.9-3.7-1.8-5.2-1.8c-0.8,0-3.3,0.9-3.2,3.9c0,0.9,0.8,1.5,0.7,1.3c-0.1-0.9-0.3-1.1,0-2
				c0.7-1.6,2-1.9,3.7-1.7c1.5,0.2,3.2,1.5,2.6,3.2C244.1,66.3,245.6,62.8,245.6,62.8z"/>
			<path class="st2" d="M258,174c0,0-3.8-1.7-4-3.3c-0.1-0.5,0.2,1.4,6.3,2.3c4.3,0.7,7.2-0.8,7.2-0.5c-0.1,0.8-1.9,1.6-3.8,1.9
				C261.5,174.8,259.5,174.5,258,174z"/>
		</g>
	</g>
	<g>
		<g>
			<path class="st0" d="M388.3,254.2c0,1.7-1.4,3.1-3.2,3.1c-1.8,0-3.2-1.4-3.2-3.1c0-1.7,1.4-3.1,3.2-3.1
				C386.9,251.1,388.3,252.5,388.3,254.2z M382.8,254.2c0,1.4,1,2.5,2.4,2.5c1.3,0,2.4-1.1,2.4-2.5c0-1.4-1-2.5-2.4-2.5
				C383.8,251.7,382.8,252.9,382.8,254.2z M384.7,255.8h-0.7v-3.1c0.3,0,0.7-0.1,1.2-0.1c0.6,0,0.8,0.1,1.1,0.2
				c0.2,0.1,0.3,0.4,0.3,0.7c0,0.4-0.3,0.6-0.6,0.7v0c0.3,0.1,0.5,0.3,0.5,0.8c0.1,0.5,0.2,0.6,0.2,0.8h-0.8
				c-0.1-0.1-0.1-0.4-0.2-0.8c-0.1-0.3-0.2-0.5-0.6-0.5h-0.3V255.8z M384.7,254.1h0.3c0.4,0,0.7-0.1,0.7-0.5c0-0.3-0.2-0.5-0.7-0.5
				c-0.2,0-0.3,0-0.4,0V254.1z"/>
		</g>
		<g>
			<path class="st0" d="M43.7,293.9V236c0-0.6,0.2-1.1,0.6-1.5c0.4-0.4,0.9-0.6,1.5-0.6h13.9c4.3,0,7.9,1.5,10.9,4.5
				c3,3,4.5,6.8,4.5,11.4c0,4.6-2,8.5-6,11.7c3.6,1.2,6.5,3.4,8.7,6.4c2.3,3.1,3.4,6.5,3.4,10.3c0,4.9-1.7,9.1-5.2,12.6
				c-3.5,3.5-7.7,5.2-12.6,5.2H45.7c-0.6,0-1.1-0.2-1.5-0.6C43.9,295,43.7,294.5,43.7,293.9z M48,260.4h11.6c3.1,0,5.7-1.1,7.9-3.2
				c2.2-2.2,3.2-4.8,3.2-7.8c0-3-1.1-5.7-3.2-7.9c-2.2-2.2-4.8-3.3-7.9-3.3H48V260.4z M48,291.7h15.5c3.7,0,6.8-1.3,9.4-3.9
				c2.6-2.6,3.9-5.8,4-9.5c-0.1-3.7-1.4-6.8-4-9.5c-2.6-2.6-5.7-4-9.4-4H48V291.7z"/>
			<path class="st0" d="M129.5,272.8v0.4c0,0.6-0.2,1.1-0.6,1.4c-0.4,0.4-0.9,0.5-1.5,0.5H91.6c0.2,4.7,2,8.7,5.2,11.9
				c3.3,3.2,7.1,4.8,11.6,4.8c2.9,0,5.6-0.7,8.1-2.1c2.5-1.4,4.5-3.3,6-5.8c0.7-1.2,1.7-1.4,2.8-0.7c1.2,0.8,1.4,1.8,0.7,3
				c-1.9,3-4.4,5.4-7.5,7.2c-3.1,1.8-6.5,2.7-10.1,2.7c-5.9,0-10.9-2.1-15-6.4c-4.1-4.2-6.2-9.4-6.2-15.4c0-6,2.1-11.1,6.2-15.4
				c4.1-4.3,9-6.4,14.7-6.4c5.7,0,10.6,1.9,14.5,5.8C126.8,262.2,129,267,129.5,272.8z M119.2,260.8c-3.1-2.7-6.6-4-10.7-4
				c-4.1,0-7.6,1.3-10.7,4c-3.1,2.6-5,6-5.9,10.2h33C124.1,266.8,122.2,263.4,119.2,260.8z"/>
			<path class="st0" d="M137.5,293.9V236c0-0.6,0.2-1.1,0.6-1.5c0.4-0.4,0.9-0.6,1.5-0.6c0.6,0,1.1,0.2,1.6,0.6
				c0.4,0.4,0.7,0.9,0.7,1.5v57.9c0,0.6-0.2,1.1-0.7,1.5c-0.4,0.4-1,0.6-1.6,0.6c-0.6,0-1.1-0.2-1.5-0.6
				C137.7,295,137.5,294.5,137.5,293.9z"/>
			<path class="st0" d="M153.7,293.9V236c0-0.6,0.2-1.1,0.6-1.5c0.4-0.4,0.9-0.6,1.5-0.6c0.6,0,1.1,0.2,1.6,0.6
				c0.4,0.4,0.7,0.9,0.7,1.5v57.9c0,0.6-0.2,1.1-0.7,1.5c-0.4,0.4-1,0.6-1.6,0.6c-0.6,0-1.1-0.2-1.5-0.6
				C153.9,295,153.7,294.5,153.7,293.9z"/>
			<path class="st0" d="M201.4,252.5c1.2,0.3,1.9,1,1.9,2v38c0,5.7-2,10.5-6,14.5c-4,4-8.9,6-14.7,6c-3,0-6-0.7-9-2
				c-1.2-0.8-1.5-1.7-0.9-2.8c0.6-1.1,1.5-1.5,2.8-1.1c2.2,1.1,4.6,1.7,7.1,1.7c4.5,0,8.3-1.6,11.5-4.7c3.2-3.1,4.8-7,4.9-11.5v-2.8
				c-3.7,4.1-8.1,6.2-13.1,6.2c-5.1,0-9.4-1.8-12.8-5.2c-3.4-3.5-5.2-7.6-5.2-12.5v-23.6c0-0.6,0.2-1.1,0.6-1.5
				c0.4-0.4,0.9-0.6,1.5-0.6c0.6,0,1.1,0.2,1.5,0.6c0.4,0.4,0.6,0.9,0.6,1.5v23.6c0,3.7,1.3,6.9,3.9,9.5c2.6,2.6,5.8,3.9,9.5,3.9
				c3.7,0,6.9-1.3,9.5-3.9c2.6-2.6,3.9-5.8,4-9.5v-23.6c0-0.5,0.1-0.8,0.2-0.9c0.1-0.1,0.2-0.3,0.4-0.4c0-0.2,0.3-0.4,0.9-0.6h0.2
				c0.1-0.1,0.2-0.1,0.3-0.1H201.4z"/>
			<path class="st0" d="M235,293.9V236c0-0.6,0.2-1.1,0.6-1.5c0.4-0.4,0.9-0.6,1.5-0.6H251c4.3,0,7.9,1.5,10.9,4.5
				c3,3,4.5,6.8,4.5,11.4c0,4.6-2,8.5-6,11.7c3.6,1.2,6.5,3.4,8.7,6.4c2.3,3.1,3.4,6.5,3.4,10.3c0,4.9-1.7,9.1-5.2,12.6
				c-3.5,3.5-7.7,5.2-12.6,5.2H237c-0.6,0-1.1-0.2-1.5-0.6C235.2,295,235,294.5,235,293.9z M239.3,260.4H251c3.1,0,5.7-1.1,7.9-3.2
				c2.2-2.2,3.2-4.8,3.2-7.8c0-3-1.1-5.7-3.2-7.9c-2.2-2.2-4.8-3.3-7.9-3.3h-11.6V260.4z M239.3,291.7h15.5c3.7,0,6.8-1.3,9.4-3.9
				c2.6-2.6,3.9-5.8,4-9.5c-0.1-3.7-1.4-6.8-4-9.5c-2.6-2.6-5.7-4-9.4-4h-15.5V291.7z"/>
			<path class="st0" d="M280.2,293.9V236c0-0.6,0.2-1.1,0.6-1.5c0.4-0.4,0.9-0.6,1.5-0.6c0.6,0,1.1,0.2,1.6,0.6
				c0.4,0.4,0.7,0.9,0.7,1.5v57.9c0,0.6-0.2,1.1-0.7,1.5c-0.4,0.4-1,0.6-1.6,0.6c-0.6,0-1.1-0.2-1.5-0.6
				C280.4,295,280.2,294.5,280.2,293.9z"/>
			<path class="st0" d="M296.4,242.5v-2c0-0.6,0.2-1.1,0.6-1.5c0.4-0.4,0.9-0.6,1.5-0.6c0.6,0,1.1,0.2,1.6,0.6
				c0.4,0.4,0.7,0.9,0.7,1.5v2c0,0.7-0.2,1.2-0.7,1.6c-0.4,0.4-1,0.7-1.6,0.7c-0.6,0-1.1-0.2-1.5-0.7
				C296.6,243.7,296.4,243.1,296.4,242.5z M296.4,293.9v-39.3c0-0.6,0.2-1.1,0.6-1.5c0.4-0.4,0.9-0.6,1.6-0.6s1.1,0.2,1.6,0.6
				c0.4,0.4,0.6,0.9,0.6,1.5v39.3c0,0.6-0.2,1.1-0.7,1.5c-0.4,0.4-1,0.6-1.6,0.6c-0.6,0-1.1-0.2-1.5-0.6
				C296.6,295,296.4,294.5,296.4,293.9z"/>
			<path class="st0" d="M309.1,289.8c-1-0.9-1.1-1.8-0.3-2.8c0.4-0.5,0.8-0.7,1.4-0.8c0.6-0.1,1.1,0.1,1.6,0.5
				c4.6,3.4,8.8,5.1,12.6,5.1c3.8,0,6.8-0.9,9-2.7c2.2-1.5,3.3-3.2,3.2-5.2c0-2-1-3.7-2.9-5.3c-1.9-1.5-5-2.7-9.4-3.4l-0.2-0.1
				c-4.6-0.8-7.9-2-9.9-3.4c-3.1-1.8-4.7-4.4-4.7-7.8c0-3.4,1.6-6.2,4.7-8.5c2.8-2,6.4-2.9,10.7-2.9c1.7,0,3.4,0.3,5.2,0.8
				c1.7,0.6,3.1,1.1,4,1.6c0.9,0.5,2.2,1.3,3.8,2.3c0.5,0.4,0.8,0.8,0.9,1.4c0.1,0.6,0,1.1-0.3,1.6c-0.3,0.5-0.7,0.8-1.3,0.9
				c-0.6,0.1-1.1,0-1.6-0.3c-1.5-1-2.6-1.7-3.3-2.2c-0.7-0.4-1.8-0.9-3.2-1.4c-1.4-0.5-2.8-0.8-4.1-0.8c-3.4,0-6.1,0.8-8.1,2.4
				c-2,1.6-2.9,3.2-2.9,4.9c0,1.7,0.8,3.2,2.5,4.5c2.1,1.4,5,2.4,8.9,3h0.2c3.8,0.6,7.4,1.8,10.6,3.6c3.3,2.1,4.9,5,4.9,8.6
				c0,3.6-1.6,6.6-4.8,9c-3.2,2.4-6.9,3.6-11,3.6C319.5,296,314.2,293.9,309.1,289.8z"/>
			<path class="st0" d="M349.1,289.8c-1-0.9-1.1-1.8-0.3-2.8c0.4-0.5,0.8-0.7,1.4-0.8c0.6-0.1,1.1,0.1,1.6,0.5
				c4.6,3.4,8.8,5.1,12.6,5.1c3.8,0,6.8-0.9,9-2.7c2.2-1.5,3.3-3.2,3.2-5.2c0-2-1-3.7-2.9-5.3c-1.9-1.5-5-2.7-9.4-3.4l-0.2-0.1
				c-4.6-0.8-7.9-2-9.9-3.4c-3.1-1.8-4.7-4.4-4.7-7.8c0-3.4,1.6-6.2,4.7-8.5c2.8-2,6.4-2.9,10.7-2.9c1.7,0,3.4,0.3,5.2,0.8
				c1.7,0.6,3.1,1.1,4,1.6c0.9,0.5,2.2,1.3,3.8,2.3c0.5,0.4,0.8,0.8,0.9,1.4c0.1,0.6,0,1.1-0.3,1.6c-0.3,0.5-0.7,0.8-1.3,0.9
				c-0.6,0.1-1.1,0-1.6-0.3c-1.5-1-2.6-1.7-3.3-2.2c-0.7-0.4-1.8-0.9-3.2-1.4c-1.4-0.5-2.8-0.8-4.1-0.8c-3.4,0-6.1,0.8-8.1,2.4
				c-2,1.6-2.9,3.2-2.9,4.9c0,1.7,0.8,3.2,2.5,4.5c2.1,1.4,5,2.4,8.9,3h0.2c3.8,0.6,7.4,1.8,10.6,3.6c3.3,2.1,4.9,5,4.9,8.6
				c0,3.6-1.6,6.6-4.8,9c-3.2,2.4-6.9,3.6-11,3.6C359.6,296,354.2,293.9,349.1,289.8z"/>
		</g>
	</g>
</g>
</svg>
